# AST/ASF file generated using VICON BodyLanguage
# -----------------------------------------------
:version 1.10
:name VICON
:units
  mass 1.0
  length 0.45
  angle deg
:documentation
   .ast/.asf automatically generated from VICON data using
   VICON BodyBuilder and BodyLanguage model FoxedUp or BRILLIANT.MOD
:root
   order TX TY TZ RX RY RZ
   axis XYZ
   position 0 0 0  
   orientation 0 0 0 
:bonedata
  begin
     id 1 
     name lhipjoint
     direction 0.561145 -0.797705 0.220866 
     length 2.46425 
     axis 0 0 0  XYZ
  end
  begin
     id 2 
     name lfemur
     direction 0.34202 -0.939693 0  
     length 7.95556  
     axis 0 0 20  XYZ
    dof rx ry rz
    limits (-160.0 20.0)
           (-70.0 70.0)
           (-60.0 70.0)
  end
  begin
     id 3 
     name ltibia
     direction 0.34202 -0.939693 0   
     length 7.9832   
     axis 0 0 20   XYZ
    dof rx
    limits (-10.0 170.0)
  end
  begin
     id 4 
     name lfoot
     direction 0.0723927 -0.198897 0.977343   
     length 2.23085   
     axis -90 7.62852e-016 20   XYZ
    dof rx rz
    limits (-45.0 90.0)
           (-70.0 20.0)
  end
  begin
     id 5 
     name ltoes
     direction 1.53826e-011 -4.21988e-011 1   
     length 1.12127   
     axis -90 7.62852e-016 20   XYZ
    dof rx
    limits (-90.0 20.0)
  end
  begin
     id 6 
     name rhipjoint
     direction -0.610499 -0.763299 0.21134   
     length 2.57533  
     axis 0 0 0  XYZ 
  end
  begin
     id 7 
     name rfemur
     direction -0.34202 -0.939693 0   
     length 8.65257   
     axis 0 0 -20   XYZ
    dof rx ry rz
    limits (-160.0 20.0)
           (-70.0 70.0)
           (-70.0 60.0)
  end
  begin
     id 8 
     name rtibia
     direction -0.342021 -0.939692 0   
     length 7.37807   
     axis 0 0 -20   XYZ
    dof rx
    limits (-10.0 170.0)
 end
 begin
     id 9 
     name rfoot
     direction -0.0239304 -0.0543852 0.998233   
     length 1.87018  
     axis -90 -7.62852e-016 -20   XYZ
    dof rx rz
    limits (-45.0 90.0)
           (-20.0 70.0)
  end
  begin
     id 10 
     name rtoes
     direction -1.53584e-011 -4.2242e-011 1   
     length 0.951568   
     axis -90 -7.62852e-016 -20   XYZ
    dof rx
    limits (-90.0 20.0)
  end
  begin
     id 11 
     name lowerback
     direction 0.00322089 0.999033 0.0438587   
     length 2.07568   
     axis 0 0 0   XYZ
    dof rx ry rz
    limits (-20.0 45.0)
           (-30.0 30.0)
           (-30.0 30.0)
  end
  begin
     id 12 
     name upperback
     direction -0.00321932 0.999732 -0.0229403   
     length 2.06253   
     axis 0 0 0   XYZ
    dof rx ry rz
    limits (-20.0 45.0)
           (-30.0 30.0)
           (-30.0 30.0)
  end
  begin
     id 13 
     name thorax
     direction -0.00537537 0.998955 -0.0453918   
     length 2.06975   
     axis 0 0 0   XYZ
    dof rx ry rz
    limits (-20.0 45.0)
           (-30.0 30.0)
           (-30.0 30.0)
  end
  begin
     id 14 
     name lowerneck
     direction -0.00013604 0.994111 0.108363   
     length 1.50836   
     axis 0 0 0   XYZ
    dof rx ry rz
    limits (-20.0 45.0)
           (-30.0 30.0)
           (-30.0 30.0)
  end
  begin
     id 15 
     name upperneck
     direction 0.0397262 0.983859 -0.174482   
     length 1.53037   
     axis 0 0 0   XYZ
    dof rx ry rz
    limits (-20.0 45.0)
           (-30.0 30.0)
           (-30.0 30.0)
  end
  begin
     id 16
     name head
     direction 0.0109991 0.997082 -0.0755378  
     length 1.56928  
     axis 0 0 0   XYZ
    dof rx ry rz
    limits (-20.0 45.0)
           (-30.0 30.0)
           (-30.0 30.0)
  end
  begin
     id 17 
     name lclavicle
     direction 0.964749 0.254 -0.068874  
     length 3.26503  
     axis 0 0 0   XYZ
    dof ry rz
    limits (-20.0 10.0)
           (0.0 20.0)
  end
  begin
     id 18 
     name lhumerus
     direction 1 -4.48941e-011 -2.05079e-027   
     length 5.68236   
     axis 180 -30 -90   XYZ
    dof rx ry rz
    limits (-60.0 90.0)
           (-90.0 90.0)
           (-90.0 90.0)
  end
  begin
     id 19
     name lradius
     direction 1 -4.48956e-011 6.2882e-027   
     length 3.17112   
     axis 180 -30 -90   XYZ
    dof rx
    limits (-10.0 170.0)
  end
  begin
     id 20
     name lwrist
     direction 1 -4.49014e-011 1.73219e-026   
     length 1.58556   
     axis -1.04724e-014 90 90   XYZ
    dof ry
    limits (-180.0 0.0)
 end
  begin
     id 21 
     name lhand
     direction 1 -4.49312e-011 3.46438e-026   
     length 0.632691   
     axis -2.21057e-014 90 90   XYZ
    dof rx rz
    limits (-90.0 90.0)
           (-45.0 45.0)
  end
  begin
     id 22 
     name lfingers
     direction 1 -4.48894e-011 6.92876e-026   
     length 0.510091   
     axis -4.42114e-014 90 90   XYZ
    dof rx
    limits (0.0 90.0)
  end
  begin
     id 23
     name lthumb
     direction 0.707107 -6.34705e-011 0.707107   
     length 0.732392   
     axis -90 45 2.85299e-015   XYZ
    dof rx rz
    limits (-45.0 45.0)
           (-45.0 45.0)
  end
  begin
     id 24 
     name rclavicle
     direction -0.954374 0.280496 -0.102435   
     length 3.25419  
     axis 0 0 0   XYZ 
    dof ry rz
    limits (-10.0 20.0)
           (-20.0 0.0)
  end
  begin
     id 25 
     name rhumerus
     direction -1 -4.48994e-011 -1.07204e-017  
     length 5.8712   
     axis 180 30 90   XYZ
    dof rx ry rz
    limits (-90.0 60.0)
           (-90.0 90.0)
           (-90.0 90.0)
  end
  begin
     id 26 
     name rradius
     direction -1 -4.48972e-011 5.89292e-027   
     length 3.37589   
     axis 180 30 90   XYZ
    dof rx
    limits (-10.0 170.0)
  end
  begin
     id 27 
     name rwrist
     direction -1 -4.48942e-011 1.73219e-026   
     length 1.68794   
     axis -1.04724e-014 -90 -90   XYZ
    dof ry
    limits (-180.0 0.0)
  end
  begin
     id 28
     name rhand
     direction -1 -4.48514e-011 3.46438e-026   
     length 0.603257   
     axis -2.21057e-014 -90 -90   XYZ
    dof rx rz
    limits (-90.0 90.0)
           (-45.0 45.0)
  end
  begin
     id 29
     name rfingers
     direction -1 -4.50028e-011 6.92876e-026   
     length 0.486362   
     axis -4.42114e-014 -90 -90   XYZ
    dof rx
    limits (0.0 90.0)
  end
  begin
     id 30
     name rthumb
     direction -0.707107 -6.34926e-011 0.707107   
     length 0.698321   
     axis -90 -45 -2.85299e-015   XYZ
    dof rx rz
    limits (-45.0 45.0)
           (-45.0 45.0)
  end
:hierarchy
  begin
    root lhipjoint rhipjoint lowerback
    lhipjoint lfemur
    lfemur ltibia
    ltibia lfoot
    lfoot ltoes
    rhipjoint rfemur
    rfemur rtibia
    rtibia rfoot
    rfoot rtoes
    lowerback upperback
    upperback thorax
    thorax lowerneck lclavicle rclavicle
    lowerneck upperneck
    upperneck head
    lclavicle lhumerus
    lhumerus lradius
    lradius lwrist
    lwrist lhand lthumb
    lhand lfingers
    rclavicle rhumerus
    rhumerus rradius
    rradius rwrist
    rwrist rhand rthumb
    rhand rfingers
  end

#!OML:ASF I:\Segmentation\Patient Classification 1\Patient 1\Session 1\Patient1.ASF
:FULLY-SPECIFIED
:DEGREES
4436
root 27.7723 17.9564 -6.47502 457.982 -443.845 -1876.5
lowerback -20.9821 10.5814 2.25535
upperback -1.966 13.5327 -2.03627
thorax 10.3886 6.48686 0.580667
lowerneck -12.9123 -7.82926 -2.10796
upperneck 25.1736 -12.4759 5.50242
head 10.7204 -5.41656 0.632219
rclavicle 1.27222e-014 2.56432e-014
rhumerus 51.1248 -6.98054 -58.1188
rradius 26.8791
rwrist 36.2287
rhand -16.7467 27.9648
rfingers 7.12502
rthumb 9.47974 -1.802
lclavicle 1.27222e-014 2.56432e-014
lhumerus -59.9391 -20.8281 91.3536
lradius 109.285
lwrist 88.5918
lhand 5.12204 42.545
lfingers 7.12502
lthumb 30.4864 70.0431
rfemur -34.5492 4.71923 24.4579
rtibia 37.0394
rfoot -15.9841 -6.19171
rtoes -44.441
lfemur -46.7158 -3.90553 -4.42831
ltibia 43.096
lfoot -20.6391 8.4739
ltoes -14.1363
4437
root 27.7652 17.9644 -6.47176 458.817 -444.098 -1877.69
lowerback -20.7025 10.5697 2.22809
upperback -1.83227 13.553 -2.11882
thorax 10.4048 6.5048 0.481651
lowerneck -13.0587 -7.8102 -2.03546
upperneck 25.1125 -12.4507 5.48703
head 10.719 -5.39669 0.613449
rclavicle 1.63003e-014 -9.54166e-015
rhumerus 50.8624 -6.81569 -57.9923
rradius 27.2457
rwrist 36.3792
rhand -17.2335 27.6426
rfingers 7.12502
rthumb 9.01003 -2.14502
lclavicle 1.63003e-014 -9.54166e-015
lhumerus -59.762 -20.8042 91.1841
lradius 109.242
lwrist 88.1949
lhand 6.10071 42.3622
lfingers 7.12502
lthumb 31.4193 69.6829
rfemur -34.1016 4.77759 24.1818
rtibia 37.0064
rfoot -16.0522 -6.06459
rtoes -44.3551
lfemur -46.2053 -3.97819 -4.76205
ltibia 43.0049
lfoot -20.6862 8.47679
ltoes -14.1147
4438
root 27.7621 17.9697 -6.4669 459.015 -444.271 -1878.06
lowerback -20.5945 10.5257 2.19795
upperback -1.74769 13.5134 -2.13448
thorax 10.4375 6.48784 0.459069
lowerneck -13.2169 -7.76835 -1.96664
upperneck 25.1091 -12.3695 5.36849
head 10.7309 -5.36133 0.566076
rclavicle 1.26899e-013 4.63168e-014
rhumerus 50.7198 -6.70448 -57.9878
rradius 27.7147
rwrist 35.7777
rhand -16.4837 27.498
rfingers 7.12502
rthumb 9.73355 -2.25712
lclavicle 1.26899e-013 4.63168e-014
lhumerus -59.5714 -20.7057 91.0417
lradius 109.671
lwrist 89.1926
lhand 4.12436 43.8006
lfingers 7.12502
lthumb 29.5344 71.4712
rfemur -33.8886 4.79565 23.9739
rtibia 36.9767
rfoot -16.1182 -6.00652
rtoes -44.2953
lfemur -45.9412 -4.1235 -4.95376
ltibia 42.9055
lfoot -20.7353 8.58588
ltoes -13.9726
4439
root 27.7597 17.9745 -6.46262 459.489 -444.369 -1878.59
lowerback -20.6086 10.481 2.2429
upperback -1.69761 13.4488 -2.14952
thorax 10.5134 6.45836 0.408638
lowerneck -13.3556 -7.71044 -1.9346
upperneck 25.1196 -12.2793 5.31754
head 10.7517 -5.31819 0.549821
rclavicle 1.23768e-013 1.2921e-014
rhumerus 50.6387 -6.72235 -58.3426
rradius 28.1052
rwrist 36.0317
rhand -16.649 27.5576
rfingers 7.12502
rthumb 9.57402 -2.20489
lclavicle 1.23768e-013 1.2921e-014
lhumerus -59.3591 -20.619 90.8223
lradius 110.121
lwrist 90.1466
lhand 1.79956 45.4158
lfingers 7.12502
lthumb 27.3129 73.4573
rfemur -33.8169 4.81478 23.8451
rtibia 36.9487
rfoot -16.145 -5.97375
rtoes -44.3006
lfemur -45.7973 -4.23504 -5.04019
ltibia 42.8083
lfoot -20.8433 8.69375
ltoes -13.5987
4440
root 27.7574 17.9786 -6.46034 460.969 -444.495 -1880.18
lowerback -20.4916 10.4746 2.2804
upperback -1.67791 13.4451 -2.21618
thorax 10.4983 6.46293 0.301011
lowerneck -13.3888 -7.67731 -1.85474
upperneck 25.0153 -12.2325 5.29861
head 10.7107 -5.29373 0.537537
rclavicle 2.38542e-014 -1.41137e-014
rhumerus 50.3725 -6.69555 -58.6182
rradius 28.5987
rwrist 36.4437
rhand -17.038 27.7027
rfingers 7.12502
rthumb 9.19872 -2.07665
lclavicle 2.38542e-014 -1.41137e-014
lhumerus -59.1963 -20.6292 90.697
lradius 109.751
lwrist 88.5161
lhand 3.97872 44.3549
lfingers 7.12502
lthumb 29.3954 72.0499
rfemur -33.6723 4.86062 23.6968
rtibia 36.9237
rfoot -16.1234 -5.88663
rtoes -44.2592
lfemur -45.5556 -4.26462 -5.18221
ltibia 42.7201
lfoot -20.9537 8.73365
ltoes -13.4167
4441
root 27.755 17.9837 -6.45811 462.302 -444.655 -1881.69
lowerback -20.3324 10.3884 2.14504
upperback -1.62817 13.3624 -2.15264
thorax 10.417 6.42175 0.388136
lowerneck -13.4261 -7.63246 -1.89059
upperneck 24.9213 -12.1132 5.18342
head 10.6712 -5.25665 0.520163
rclavicle -6.07784e-014 7.37491e-014
rhumerus 50.1733 -6.27388 -58.3107
rradius 29.0342
rwrist 35.3985
rhand -16.6555 28.1358
rfingers 7.12502
rthumb 9.56778 -1.62692
lclavicle -6.07784e-014 7.37491e-014
lhumerus -59.0704 -20.2298 90.6038
lradius 110.176
lwrist 89.109
lhand 1.86424 46.0134
lfingers 7.12502
lthumb 27.3748 74.0452
rfemur -33.4568 4.91385 23.5059
rtibia 36.9023
rfoot -16.1254 -5.78738
rtoes -44.2521
lfemur -45.2576 -4.34629 -5.3588
ltibia 42.6295
lfoot -21.0392 8.7802
ltoes -13.4393
